<svg width="202" height="24" viewBox="0 0 202 24" fill="none" xmlns="http://www.w3.org/2000/svg">
<path d="M43.3 13.14C43.3 14.3133 43.0733 15.36 42.62 16.28C42.18 17.1867 41.5667 17.9 40.78 18.42C40.0067 18.94 39.1267 19.2 38.14 19.2C37.1533 19.2 36.2667 18.94 35.48 18.42C34.7067 17.9 34.0933 17.1867 33.64 16.28C33.2 15.36 32.98 14.3133 32.98 13.14C32.98 11.9667 33.2 10.9267 33.64 10.02C34.0933 9.1 34.7067 8.38 35.48 7.86C36.2667 7.32667 37.1533 7.06 38.14 7.06C39.1267 7.06 40.0067 7.32667 40.78 7.86C41.5667 8.38 42.18 9.1 42.62 10.02C43.0733 10.9267 43.3 11.9667 43.3 13.14ZM40.6 13.14C40.6 12.42 40.4933 11.7933 40.28 11.26C40.08 10.7133 39.7933 10.2867 39.42 9.98C39.0467 9.67333 38.62 9.52 38.14 9.52C37.6467 9.52 37.2133 9.67333 36.84 9.98C36.4667 10.2867 36.1733 10.7133 35.96 11.26C35.76 11.7933 35.66 12.42 35.66 13.14C35.66 13.86 35.76 14.4867 35.96 15.02C36.1733 15.5533 36.4667 15.9733 36.84 16.28C37.2133 16.5867 37.6467 16.74 38.14 16.74C38.62 16.74 39.04 16.5867 39.4 16.28C39.7733 15.9733 40.0667 15.5533 40.28 15.02C40.4933 14.4733 40.6 13.8467 40.6 13.14ZM55.5852 13.14C55.5852 14.3133 55.3585 15.36 54.9052 16.28C54.4652 17.1867 53.8518 17.9 53.0652 18.42C52.2918 18.94 51.4118 19.2 50.4252 19.2C49.4385 19.2 48.5518 18.94 47.7652 18.42C46.9918 17.9 46.3785 17.1867 45.9252 16.28C45.4852 15.36 45.2652 14.3133 45.2652 13.14C45.2652 11.9667 45.4852 10.9267 45.9252 10.02C46.3785 9.1 46.9918 8.38 47.7652 7.86C48.5518 7.32667 49.4385 7.06 50.4252 7.06C51.4118 7.06 52.2918 7.32667 53.0652 7.86C53.8518 8.38 54.4652 9.1 54.9052 10.02C55.3585 10.9267 55.5852 11.9667 55.5852 13.14ZM52.8852 13.14C52.8852 12.42 52.7785 11.7933 52.5652 11.26C52.3652 10.7133 52.0785 10.2867 51.7052 9.98C51.3318 9.67333 50.9052 9.52 50.4252 9.52C49.9318 9.52 49.4985 9.67333 49.1252 9.98C48.7518 10.2867 48.4585 10.7133 48.2452 11.26C48.0452 11.7933 47.9452 12.42 47.9452 13.14C47.9452 13.86 48.0452 14.4867 48.2452 15.02C48.4585 15.5533 48.7518 15.9733 49.1252 16.28C49.4985 16.5867 49.9318 16.74 50.4252 16.74C50.9052 16.74 51.3252 16.5867 51.6852 16.28C52.0585 15.9733 52.3518 15.5533 52.5652 15.02C52.7785 14.4733 52.8852 13.8467 52.8852 13.14ZM62.8103 21.54V18.56H56.9703V16.18L63.6703 7.58H65.4903V16.16H67.2503V18.56H65.4903V21.54H62.8103ZM59.6503 16.16H63.1103V11.64L59.6503 16.16ZM74.2361 21.54V18.56H68.3961V16.18L75.0961 7.58H76.9161V16.16H78.6761V18.56H76.9161V21.54H74.2361ZM71.0761 16.16H74.5361V11.64L71.0761 16.16ZM91.2466 9.78H84.7866V7.34H95.4666L88.4266 21.54H85.3866L91.2466 9.78ZM96.0775 12.52C96.0775 11.6 96.3042 10.7667 96.7575 10.02C97.2108 9.27333 97.8308 8.68 98.6175 8.24C99.4042 7.8 100.284 7.58 101.258 7.58C102.338 7.58 103.264 7.84 104.038 8.36C104.824 8.88 105.431 9.62667 105.858 10.6C106.284 11.56 106.498 12.7267 106.498 14.1C106.498 15.82 106.271 17.2733 105.818 18.46C105.378 19.6467 104.744 20.5467 103.918 21.16C103.091 21.7733 102.118 22.08 100.998 22.08C100.104 22.08 99.2775 21.8867 98.5175 21.5C97.7575 21.1133 97.1175 20.56 96.5975 19.84L98.1375 18.16C98.4575 18.6533 98.8708 19.04 99.3775 19.32C99.8975 19.6133 100.451 19.76 101.038 19.76C101.638 19.76 102.151 19.6 102.578 19.28C103.018 18.96 103.358 18.5 103.598 17.9C103.851 17.2867 103.984 16.5533 103.998 15.7C103.824 16.0067 103.584 16.28 103.278 16.52C102.984 16.76 102.644 16.9467 102.258 17.08C101.884 17.2 101.471 17.26 101.018 17.26C100.098 17.26 99.2575 17.0533 98.4975 16.64C97.7508 16.2133 97.1575 15.6467 96.7175 14.94C96.2908 14.22 96.0775 13.4133 96.0775 12.52ZM101.258 9.84C100.791 9.84 100.358 9.96667 99.9575 10.22C99.5575 10.46 99.2375 10.78 98.9975 11.18C98.7575 11.58 98.6375 12.0267 98.6375 12.52C98.6375 13 98.7508 13.44 98.9775 13.84C99.2175 14.2267 99.5375 14.54 99.9375 14.78C100.338 15.0067 100.778 15.12 101.258 15.12C101.738 15.12 102.171 15.0067 102.558 14.78C102.958 14.54 103.278 14.2267 103.518 13.84C103.758 13.44 103.878 13 103.878 12.52C103.878 12.04 103.758 11.6 103.518 11.2C103.278 10.7867 102.958 10.46 102.558 10.22C102.158 9.96667 101.724 9.84 101.258 9.84ZM114.835 14.28C115.395 14.3733 115.882 14.5867 116.295 14.92C116.708 15.24 117.028 15.6533 117.255 16.16C117.495 16.6667 117.615 17.2267 117.615 17.84C117.615 18.6667 117.402 19.3867 116.975 20C116.548 20.6133 115.942 21.0867 115.155 21.42C114.382 21.7667 113.468 21.94 112.415 21.94C111.402 21.94 110.502 21.7733 109.715 21.44C108.942 21.12 108.295 20.6467 107.775 20.02L109.295 18.12C109.642 18.5467 110.055 18.88 110.535 19.12C111.028 19.3733 111.628 19.5 112.335 19.5C113.148 19.5 113.768 19.3333 114.195 19C114.622 18.68 114.835 18.1933 114.835 17.54C114.835 16.8467 114.588 16.3133 114.095 15.94C113.602 15.5667 112.855 15.38 111.855 15.38H111.295V13.38H111.915C112.728 13.38 113.362 13.1933 113.815 12.82C114.282 12.4467 114.515 11.98 114.515 11.42C114.515 11.06 114.428 10.76 114.255 10.52C114.082 10.28 113.842 10.1 113.535 9.98C113.242 9.86 112.895 9.8 112.495 9.8C111.895 9.8 111.348 9.94 110.855 10.22C110.362 10.5 109.962 10.8933 109.655 11.4L107.975 9.52C108.255 9.10667 108.635 8.75333 109.115 8.46C109.608 8.15333 110.168 7.91333 110.795 7.74C111.435 7.56667 112.102 7.48 112.795 7.48C113.702 7.48 114.495 7.62667 115.175 7.92C115.868 8.21333 116.408 8.62667 116.795 9.16C117.182 9.69333 117.375 10.3133 117.375 11.02C117.375 11.54 117.268 12.0333 117.055 12.5C116.842 12.9667 116.542 13.36 116.155 13.68C115.782 13.9867 115.342 14.1867 114.835 14.28ZM125.387 9.78H118.927V7.34H129.607L122.567 21.54H119.527L125.387 9.78ZM135.023 12.52C135.023 11.6 135.249 10.7667 135.703 10.02C136.156 9.27333 136.776 8.68 137.563 8.24C138.349 7.8 139.229 7.58 140.203 7.58C141.283 7.58 142.209 7.84 142.983 8.36C143.769 8.88 144.376 9.62667 144.803 10.6C145.229 11.56 145.443 12.7267 145.443 14.1C145.443 15.82 145.216 17.2733 144.763 18.46C144.323 19.6467 143.689 20.5467 142.863 21.16C142.036 21.7733 141.063 22.08 139.943 22.08C139.049 22.08 138.223 21.8867 137.463 21.5C136.703 21.1133 136.063 20.56 135.543 19.84L137.083 18.16C137.403 18.6533 137.816 19.04 138.323 19.32C138.843 19.6133 139.396 19.76 139.983 19.76C140.583 19.76 141.096 19.6 141.523 19.28C141.963 18.96 142.303 18.5 142.543 17.9C142.796 17.2867 142.929 16.5533 142.943 15.7C142.769 16.0067 142.529 16.28 142.223 16.52C141.929 16.76 141.589 16.9467 141.203 17.08C140.829 17.2 140.416 17.26 139.963 17.26C139.043 17.26 138.203 17.0533 137.443 16.64C136.696 16.2133 136.103 15.6467 135.663 14.94C135.236 14.22 135.023 13.4133 135.023 12.52ZM140.203 9.84C139.736 9.84 139.303 9.96667 138.903 10.22C138.503 10.46 138.183 10.78 137.943 11.18C137.703 11.58 137.583 12.0267 137.583 12.52C137.583 13 137.696 13.44 137.923 13.84C138.163 14.2267 138.483 14.54 138.883 14.78C139.283 15.0067 139.723 15.12 140.203 15.12C140.683 15.12 141.116 15.0067 141.503 14.78C141.903 14.54 142.223 14.2267 142.463 13.84C142.703 13.44 142.823 13 142.823 12.52C142.823 12.04 142.703 11.6 142.463 11.2C142.223 10.7867 141.903 10.46 141.503 10.22C141.103 9.96667 140.669 9.84 140.203 9.84ZM153.18 9.78H146.72V7.34H157.4L150.36 21.54H147.32L153.18 9.78ZM162.849 21.54V18.56H157.009V16.18L163.709 7.58H165.529V16.16H167.289V18.56H165.529V21.54H162.849ZM159.689 16.16H163.149V11.64L159.689 16.16ZM175.055 9.78H168.595V7.34H179.275L172.235 21.54H169.195L175.055 9.78ZM184.232 21.98C183.206 21.98 182.279 21.76 181.452 21.32C180.626 20.88 179.999 20.28 179.572 19.52L181.112 17.92C181.486 18.44 181.952 18.8533 182.512 19.16C183.072 19.4667 183.652 19.62 184.252 19.62C184.732 19.62 185.152 19.52 185.512 19.32C185.886 19.12 186.179 18.84 186.392 18.48C186.606 18.12 186.712 17.7067 186.712 17.24C186.712 16.7733 186.612 16.3667 186.412 16.02C186.212 15.6733 185.939 15.4067 185.592 15.22C185.246 15.02 184.852 14.92 184.412 14.92C183.972 14.92 183.559 15.02 183.172 15.22C182.799 15.4067 182.499 15.68 182.272 16.04H179.932L181.572 7.58H188.572V10.02H183.512L182.932 13.2C183.106 13.04 183.346 12.9067 183.652 12.8C183.959 12.68 184.339 12.62 184.792 12.62C185.686 12.62 186.486 12.8133 187.192 13.2C187.899 13.5867 188.452 14.1267 188.852 14.82C189.252 15.5 189.452 16.2867 189.452 17.18C189.452 18.1267 189.226 18.96 188.772 19.68C188.319 20.4133 187.699 20.98 186.912 21.38C186.126 21.78 185.232 21.98 184.232 21.98ZM196.306 21.54V18.56H190.466V16.18L197.166 7.58H198.986V16.16H200.746V18.56H198.986V21.54H196.306ZM193.146 16.16H196.606V11.64L193.146 16.16Z" fill="#F6F8F9"/>
<path d="M20.9021 13.2481C20.6379 13.2481 20.3618 13.1638 20.0976 13.1035C19.5631 12.9837 19.0375 12.8267 18.5246 12.6338C17.9676 12.4306 17.3553 12.4411 16.8056 12.6635C16.2558 12.8858 15.8075 13.3042 15.5468 13.8382L15.2827 14.3922C14.1165 13.7289 13.0392 12.9194 12.0767 11.9835C11.1435 11.018 10.3366 9.93747 9.67521 8.76781L10.2276 8.51489C10.7599 8.25344 11.1771 7.80375 11.3987 7.25234C11.6204 6.70093 11.6309 6.08678 11.4283 5.52806C11.2376 5.00901 11.0812 4.47794 10.96 3.93829C10.9 3.67333 10.8519 3.39632 10.8159 3.13136C10.6701 2.28303 10.2271 1.51479 9.56669 0.964988C8.90628 0.41519 8.07186 0.119966 7.2137 0.132481H3.59948C3.09187 0.131814 2.58985 0.238764 2.12632 0.44632C1.6628 0.653876 1.24824 0.957351 0.909835 1.33685C0.564407 1.72665 0.307203 2.18683 0.155896 2.68579C0.00458904 3.18474 -0.0372352 3.71063 0.0332971 4.22734C0.686002 9.24009 2.96935 13.8968 6.52928 17.4754C10.0971 21.0461 14.7398 23.3364 19.7374 23.991C19.8933 24.003 20.0498 24.003 20.2057 23.991C21.0911 23.9923 21.946 23.6665 22.6071 23.0757C22.9855 22.7363 23.2881 22.3205 23.495 21.8556C23.7019 21.3906 23.8085 20.8871 23.8079 20.3779V16.7648C23.8014 15.9326 23.5087 15.1282 22.9793 14.4875C22.4499 13.8467 21.7161 13.4089 20.9021 13.2481ZM21.4905 20.4743C21.4901 20.6423 21.4546 20.8085 21.3864 20.962C21.3181 21.1154 21.2186 21.2529 21.0942 21.3655C20.9626 21.4858 20.806 21.5752 20.6357 21.6273C20.4654 21.6793 20.2857 21.6928 20.1096 21.6666C15.6288 21.0796 11.4646 19.0314 8.25834 15.8375C5.04934 12.6187 2.98955 8.42742 2.39875 3.9142C2.37266 3.73756 2.38606 3.55731 2.43798 3.38651C2.4899 3.2157 2.57903 3.05862 2.69893 2.92662C2.81255 2.80034 2.95154 2.69964 3.10676 2.63113C3.26198 2.56263 3.42991 2.52788 3.59948 2.52918H7.2017C7.47926 2.52237 7.7506 2.61226 7.96952 2.78354C8.18845 2.95482 8.34143 3.1969 8.40243 3.46858C8.40243 3.79376 8.5105 4.13099 8.58254 4.45617C8.72132 5.08709 8.90592 5.70699 9.13488 6.3109L7.45385 7.10578C7.16491 7.23882 6.94037 7.48137 6.82947 7.78023C6.70937 8.07344 6.70937 8.40233 6.82947 8.69555C8.55757 12.4083 11.533 15.3928 15.2346 17.1261C15.527 17.2466 15.8548 17.2466 16.1472 17.1261C16.4451 17.0149 16.687 16.7897 16.8196 16.4999L17.5761 14.8137C18.1955 15.0403 18.8293 15.2254 19.4732 15.3678C19.7854 15.44 20.1216 15.5002 20.4458 15.5484C20.7167 15.6096 20.958 15.763 21.1288 15.9826C21.2996 16.2022 21.3892 16.4744 21.3824 16.7528L21.4905 20.4743ZM14.4061 0C14.1299 0 13.8418 0 13.5656 0C13.2471 0.0271506 12.9525 0.180078 12.7464 0.425139C12.5404 0.670201 12.4399 0.987322 12.4669 1.30674C12.494 1.62616 12.6465 1.92171 12.8908 2.12838C13.1351 2.33504 13.4513 2.43589 13.7697 2.40874H14.4061C16.3168 2.40874 18.1493 3.17007 19.5004 4.52525C20.8515 5.88043 21.6105 7.71844 21.6105 9.63496C21.6105 9.85174 21.6105 10.0565 21.6105 10.2733C21.5839 10.591 21.684 10.9063 21.8888 11.1502C22.0936 11.394 22.3865 11.5464 22.7032 11.574H22.7993C23.0998 11.5752 23.39 11.4633 23.6123 11.2604C23.8346 11.0575 23.9729 10.7783 24 10.478C24 10.201 24 9.91196 24 9.63496C24 7.08169 22.9896 4.63283 21.1907 2.82627C19.3919 1.01971 16.9517 0.00319158 14.4061 0ZM16.8076 9.63496C16.8076 9.95438 16.9341 10.2607 17.1593 10.4866C17.3845 10.7124 17.6899 10.8393 18.0083 10.8393C18.3268 10.8393 18.6322 10.7124 18.8574 10.4866C19.0826 10.2607 19.2091 9.95438 19.2091 9.63496C19.2091 8.35728 18.703 7.13194 17.8023 6.22848C16.9016 5.32503 15.6799 4.81748 14.4061 4.81748C14.0877 4.81748 13.7822 4.94437 13.5571 5.17023C13.3319 5.39609 13.2054 5.70243 13.2054 6.02185C13.2054 6.34127 13.3319 6.6476 13.5571 6.87347C13.7822 7.09933 14.0877 7.22622 14.4061 7.22622C15.043 7.22622 15.6538 7.47999 16.1042 7.93172C16.5546 8.38345 16.8076 8.99612 16.8076 9.63496Z" fill="#F6F8F9"/>
</svg>
