<svg width="120" height="20" viewBox="0 0 120 20" fill="none" xmlns="http://www.w3.org/2000/svg">
<path d="M10.0007 14.392L15.1507 17.5003L13.784 11.642L18.334 7.70033L12.3424 7.18366L10.0007 1.66699L7.65902 7.18366L1.66736 7.70033L6.20902 11.642L4.85069 17.5003L10.0007 14.392Z" fill="#F6E204"/>
<path d="M35.0007 14.392L40.1507 17.5003L38.784 11.642L43.334 7.70033L37.3424 7.18366L35.0007 1.66699L32.659 7.18366L26.6674 7.70033L31.209 11.642L29.8507 17.5003L35.0007 14.392Z" fill="#F6E204"/>
<path d="M60.0007 14.392L65.1507 17.5003L63.784 11.642L68.334 7.70033L62.3424 7.18366L60.0007 1.66699L57.659 7.18366L51.6674 7.70033L56.209 11.642L54.8507 17.5003L60.0007 14.392Z" fill="#F6E204"/>
<path d="M85.0007 14.392L90.1507 17.5003L88.784 11.642L93.334 7.70033L87.3424 7.18366L85.0007 1.66699L82.659 7.18366L76.6674 7.70033L81.209 11.642L79.8507 17.5003L85.0007 14.392Z" fill="#F6E204"/>
<path d="M110.001 12.8253L106.867 14.717L107.692 11.1503L104.926 8.75033L108.576 8.44199L110.001 5.07533L111.426 8.44199L115.076 8.75033L112.309 11.1503L113.134 14.717M118.334 7.70033L112.342 7.19199L110.001 1.66699L107.659 7.19199L101.667 7.70033L106.209 11.642L104.851 17.5003L110.001 14.392L115.151 17.5003L113.784 11.642L118.334 7.70033Z" fill="#F6E204"/>
</svg>
