<svg width="164" height="24" viewBox="0 0 164 24" fill="none" xmlns="http://www.w3.org/2000/svg">
<path fill-rule="evenodd" clip-rule="evenodd" d="M8.44172 0.530658L1.93949 18.1494C2.25707 17.8849 2.56559 17.6322 2.84874 17.4002L2.95275 17.315C3.08935 17.2029 3.23186 17.0907 3.3709 16.9827C3.48539 16.8937 3.60337 16.8005 3.71779 16.7064C3.77479 16.6615 3.82868 16.6114 3.88257 16.5614C3.89604 16.5489 3.90952 16.5364 3.92304 16.5239L3.92976 16.5177C4.09556 16.3647 4.26854 16.2051 4.47897 16.1511C4.59092 16.1226 4.71633 16.1213 4.84887 16.122C4.85774 16.1218 4.8675 16.1218 4.87727 16.1218C4.88703 16.1218 4.89679 16.1218 4.90566 16.1215C5.93626 16.1172 6.87699 15.8295 7.55719 15.3142C8.34605 14.7152 8.75517 13.8353 9.0511 13.0515C10.1158 10.237 10.8909 7.29584 11.6404 4.45162C11.8274 3.73622 12.0235 2.99602 12.221 2.27318C12.2668 2.10511 12.3219 1.9327 12.4591 1.85643C12.5811 1.78977 12.7586 1.79537 13.0192 1.87867C14.4002 2.31564 15.3464 3.29122 15.897 4.03447C16.198 4.44104 16.4574 4.8731 16.6924 5.31589L14.9606 0.530658H8.44172ZM9.11414 9.19939C8.81654 10.0252 8.60068 10.7127 8.41069 11.3186C8.02852 12.5418 7.77442 13.35 7.22901 14.0737C6.76114 14.692 6.07667 15.2351 4.93947 15.8791C5.88832 15.8686 6.75606 15.6044 7.37779 15.1315C8.11524 14.5717 8.50486 13.7292 8.78833 12.9796C9.84967 10.1743 10.6225 7.2394 11.3697 4.40138C11.4087 4.25405 11.4478 4.10554 11.487 3.9564L11.49 3.94516C11.5531 3.70561 11.6165 3.46447 11.6805 3.22409C11.0468 4.48351 10.0386 6.63523 9.11414 9.19939Z" fill="white"/>
<path d="M19.7765 13.838L19.7696 13.8408C19.7385 13.8536 19.7069 13.8665 19.6748 13.8796C19.5977 13.9109 19.5179 13.9434 19.4358 13.9795C19.336 14.0231 19.249 14.0581 19.1743 14.0488C19.0604 14.0343 18.9745 13.9168 18.8978 13.7898L15.9577 8.9328C15.847 8.74936 15.6961 8.49939 15.4138 8.38492C15.2339 8.31078 15.0398 8.31277 14.8376 8.39074C14.8129 8.39957 14.7894 8.41042 14.7636 8.42236C14.3666 8.60573 13.9318 9.07472 13.4707 9.81876C13.0996 10.4182 12.8001 11.0566 12.7003 11.3193C12.1773 12.6823 12.0329 14.1204 11.9671 15.2207C11.9207 16 11.8063 16.8107 11.3012 17.4668C11.2803 17.4939 11.2588 17.5205 11.2368 17.5467H15.9482L18.0682 23.4047H23.2387L19.7765 13.838Z" fill="white"/>
<path d="M6.43674 20.0066L5.18265 23.4047H0L0.884254 21.0087C1.06196 21.0753 1.27017 21.0971 1.49408 21.0695C2.85615 20.8993 4.61262 20.5856 6.43674 20.0066Z" fill="white"/>
<path d="M27.7557 23.4047V22.5372H30.7314V1.39476H27.8797V0.510276H37.6393V1.39476H34.3625V22.5372H39.2688C41.0637 22.5372 42.3921 22.146 43.2541 21.3636C44.1279 20.5698 44.8305 19.1013 45.3619 16.9582H46.0527L45.6453 23.4047H27.7557Z" fill="white"/>
<path d="M48.5501 23.5067H47.9302V17.4855H48.621C49.1878 19.1864 50.0793 20.5301 51.2956 21.5167C52.5236 22.4918 53.9052 22.9794 55.4403 22.9794C57.1525 22.9794 58.5931 22.4635 59.7621 21.4316C60.943 20.3997 61.5334 19.141 61.5334 17.6556C61.5334 15.9093 59.7503 14.4975 56.1842 13.4203C55.9008 13.3409 55.6883 13.2785 55.5466 13.2332C52.5 12.3033 50.4749 11.3508 49.4712 10.3756C48.4675 9.38909 47.9656 8.0567 47.9656 6.37846C47.9656 4.4961 48.6092 2.96527 49.8963 1.78597C51.1834 0.595322 52.8602 0 54.9266 0C56.4617 0 57.8964 0.379872 59.2308 1.13962C59.4787 1.28703 59.6263 1.36074 59.6736 1.36074C59.7444 1.3494 59.8035 1.33239 59.8507 1.30971C59.9097 1.27569 59.9629 1.23033 60.0101 1.17364L60.7009 0.44224H61.4625V5.68108H60.8072C60.2286 4.03685 59.4138 2.80652 58.3629 1.99008C57.3237 1.17364 56.0484 0.765415 54.537 0.765415C53.1672 0.765415 52.01 1.1623 51.0653 1.95606C50.1325 2.73848 49.666 3.69667 49.666 4.83062C49.666 5.77179 50.0262 6.54288 50.7465 7.14387C51.4668 7.74486 52.6476 8.25514 54.289 8.6747C54.5252 8.7314 54.8853 8.82211 55.3694 8.94685C58.109 9.64989 59.9216 10.3246 60.8072 10.9709C61.5865 11.5493 62.1769 12.2693 62.5784 13.1311C62.9917 13.9929 63.1984 14.9681 63.1984 16.0567C63.1984 18.4266 62.4662 20.3147 61.002 21.7208C59.5496 23.1269 57.5835 23.8299 55.1038 23.8299C53.3679 23.8299 51.7797 23.3763 50.3391 22.4692C50.1029 22.3218 49.9671 22.2481 49.9317 22.2481C49.8963 22.2481 49.8491 22.2651 49.79 22.2991C49.7428 22.3331 49.6896 22.3785 49.6306 22.4352L48.5501 23.5067Z" fill="white"/>
<path d="M69.4154 23.4047V22.5372H72.4266V1.39476C72.273 1.38342 72.1136 1.37775 71.9483 1.37775C71.783 1.36641 71.5409 1.36074 71.2221 1.36074C69.5453 1.36074 68.2936 1.77463 67.4671 2.60241C66.6405 3.41885 65.9969 4.93267 65.5364 7.14387H64.7393L65.0582 0.510276H83.4437L83.7094 7.14387H82.9123C82.5935 5.04607 81.9913 3.5606 81.1057 2.68746C80.22 1.80298 78.8739 1.36074 77.0672 1.36074C76.7602 1.36074 76.5358 1.36641 76.3941 1.37775C76.2524 1.37775 76.1285 1.38342 76.0222 1.39476L76.0045 22.5372H78.9447V23.4047H69.4154Z" fill="white"/>
<path d="M91.9634 10.5117H94.0712C96.5155 10.5117 98.151 10.1715 98.9775 9.49114C99.8159 8.79943 100.235 7.56343 100.235 5.78313C100.235 4.11623 99.8868 2.97094 99.1901 2.34727C98.5052 1.71226 97.1354 1.39476 95.0808 1.39476H91.9634V10.5117ZM85.6223 22.5372H88.4563V1.39476H85.764V0.510276H95.8424C98.4993 0.510276 100.548 0.952516 101.989 1.837C103.429 2.72147 104.15 3.96315 104.15 5.56201C104.15 7.14954 103.5 8.4309 102.201 9.4061C100.914 10.37 99.1488 10.9029 96.9052 11.005V11.2771C98.641 11.5719 100.052 12.1559 101.138 13.0291C102.225 13.9022 102.868 14.9681 103.069 16.2268C103.175 16.8845 103.24 17.8427 103.264 19.1013C103.288 20.3487 103.394 21.2048 103.583 21.6697C103.736 22.078 103.955 22.3785 104.238 22.5712C104.533 22.7527 104.917 22.8434 105.389 22.8434C105.673 22.8434 105.968 22.8094 106.275 22.7413C106.582 22.6619 106.901 22.5485 107.232 22.4011V23.2686C106.641 23.5067 106.068 23.6882 105.513 23.8129C104.958 23.9376 104.433 24 103.937 24C102.426 24 101.298 23.4444 100.554 22.3331C99.81 21.2218 99.379 19.4302 99.2609 16.9582C99.2609 16.9015 99.255 16.8221 99.2432 16.7201C99.1724 14.9398 98.8004 13.6981 98.1273 12.995C97.6432 12.4848 97.0469 12.0936 96.3384 11.8214C95.6417 11.5493 94.886 11.4132 94.0712 11.4132H91.9634V22.5372H94.7265V23.4047H85.6223V22.5372Z" fill="white"/>
<path d="M109.162 23.4047V22.5372H112.173V1.39476H109.162V0.510276H118.886V1.39476H115.804V22.5372H118.886V23.4047H109.162Z" fill="white"/>
<path d="M127.92 1.39476V22.5372H130.506C131.71 22.5372 132.767 22.4125 133.676 22.163C134.597 21.9135 135.353 21.5507 135.943 21.0744C136.794 20.3714 137.39 19.4415 137.732 18.2849C138.087 17.1283 138.264 14.9908 138.264 11.8724C138.264 9.12828 138.11 7.16655 137.803 5.98724C137.508 4.80794 137 3.86676 136.28 3.16371C135.631 2.55138 134.822 2.10347 133.853 1.81999C132.897 1.5365 131.669 1.39476 130.169 1.39476H127.92ZM124.306 22.5372V1.39476H121.614V0.510276H130.329C134.143 0.510276 137.083 1.4798 139.149 3.41885C141.216 5.3579 142.249 8.11906 142.249 11.7023C142.249 13.8228 141.871 15.7165 141.115 17.3834C140.36 19.039 139.238 20.4281 137.75 21.5507C136.9 22.1857 135.902 22.6563 134.757 22.9624C133.623 23.2573 132.265 23.4047 130.683 23.4047H121.614V22.5372H124.306Z" fill="white"/>
<path d="M145.42 23.4047V22.5372H148.112V1.39476H145.42V0.510276H163.114V6.02126H162.353C162.081 4.27498 161.514 3.06733 160.652 2.3983C159.79 1.72927 158.302 1.39476 156.189 1.39476H151.725V11.073H152.451C153.998 11.073 155.097 10.8065 155.746 10.2736C156.395 9.72927 156.779 8.78809 156.897 7.45004H157.641V16.0567H156.88C156.797 14.5259 156.39 13.46 155.657 12.859C154.925 12.2466 153.68 11.9405 151.92 11.9405H151.725V22.5372H156.773C158.745 22.5372 160.192 22.1347 161.113 21.3296C162.046 20.5131 162.742 19.0333 163.203 16.8901H164L163.628 23.4047H145.42Z" fill="white"/>
</svg>
