<svg width="82" height="82" viewBox="0 0 82 82" fill="none" xmlns="http://www.w3.org/2000/svg">
<circle cx="41" cy="41" r="40.5" fill="#F6F8F9" stroke="#007074"/>
<path d="M27.8842 26.4825H26.6246L27.1173 27.6417L32.4857 40.2733L32.7013 40.7807H33.2526H50.4737C51.4442 40.7807 52.2965 40.3094 52.8246 39.6053L59.1356 31.1904C59.1365 31.1893 59.1374 31.1881 59.1383 31.187C59.5247 30.68 59.7281 30.0602 59.7281 29.4211C59.7281 28.6417 59.4185 27.8942 58.8674 27.3432C58.3163 26.7921 57.5688 26.4825 56.7895 26.4825H27.8842ZM33.3579 41.2193H32.8399L32.6106 41.6838L30.9896 44.968L30.946 45.0562L30.9242 45.1522L30.7137 46.0785L30.693 46.1697V46.2632C30.693 47.0425 31.0026 47.79 31.5537 48.3411C32.1048 48.8922 32.8522 49.2018 33.6316 49.2018H55.9561V49.6404H33.6316C32.7359 49.6404 31.8769 49.2845 31.2435 48.6512C30.6102 48.0178 30.2544 47.1588 30.2544 46.2632L30.2544 46.2624C30.2539 45.6895 30.3992 45.1258 30.6765 44.6245L30.6866 44.6063L30.6958 44.5876L32.2115 41.4929L32.3789 41.1512L32.2304 40.801L24.5883 22.7799L24.3728 22.2719H23.8211H21.8333V21.8333H24.6592L26.2331 25.5365L26.4487 26.0439H27H56.7895C57.6852 26.0439 58.5442 26.3997 59.1775 27.033C59.8109 27.6664 60.1667 28.5254 60.1667 29.4211C60.1667 30.2698 59.8829 30.969 59.4094 31.5439L59.397 31.5589L59.3853 31.5745L53.259 39.764L53.2521 39.7732L53.2455 39.7826C52.6363 40.6457 51.6218 41.2193 50.4737 41.2193H33.3579ZM52.5789 53.4123C53.4746 53.4123 54.3336 53.7681 54.967 54.4014C55.6003 55.0348 55.9561 55.8938 55.9561 56.7895C55.9561 57.6852 55.6003 58.5442 54.967 59.1775C54.3336 59.8109 53.4746 60.1667 52.5789 60.1667C51.6833 60.1667 50.8243 59.8109 50.1909 59.1775C49.5576 58.5442 49.2018 57.6852 49.2018 56.7895C49.2018 55.8938 49.5576 55.0348 50.1909 54.4014C50.8243 53.7681 51.6833 53.4123 52.5789 53.4123ZM52.5789 53.8509C51.7996 53.8509 51.0521 54.1605 50.501 54.7116C49.95 55.2627 49.6404 56.0101 49.6404 56.7895C49.6404 57.5688 49.95 58.3163 50.501 58.8674C51.0521 59.4185 51.7996 59.7281 52.5789 59.7281C53.3583 59.7281 54.1058 59.4185 54.6569 58.8674C55.2079 58.3163 55.5175 57.5688 55.5175 56.7895C55.5175 56.0101 55.2079 55.2627 54.6569 54.7116C54.1058 54.1605 53.3583 53.8509 52.5789 53.8509ZM33.6316 53.4123C34.5273 53.4123 35.3863 53.7681 36.0196 54.4014C36.653 55.0348 37.0088 55.8938 37.0088 56.7895C37.0088 57.6852 36.653 58.5442 36.0196 59.1775C35.3863 59.8109 34.5273 60.1667 33.6316 60.1667C32.7359 60.1667 31.8769 59.8109 31.2435 59.1775C30.6102 58.5442 30.2544 57.6852 30.2544 56.7895C30.2544 55.8938 30.6102 55.0348 31.2435 54.4014C31.8769 53.7681 32.7359 53.4123 33.6316 53.4123ZM33.6316 53.8509C32.8522 53.8509 32.1048 54.1605 31.5537 54.7116C31.0026 55.2627 30.693 56.0101 30.693 56.7895C30.693 57.5688 31.0026 58.3163 31.5537 58.8674C32.1048 59.4185 32.8522 59.7281 33.6316 59.7281C34.4109 59.7281 35.1584 59.4185 35.7095 58.8674C36.2606 58.3163 36.5702 57.5688 36.5702 56.7895C36.5702 56.0101 36.2606 55.2627 35.7095 54.7116C35.1584 54.1605 34.4109 53.8509 33.6316 53.8509Z" fill="#338D90" stroke="#007074" stroke-width="1.66667"/>
</svg>
