<svg width="48" height="48" viewBox="0 0 48 48" fill="none" xmlns="http://www.w3.org/2000/svg">
<rect x="0.5" y="0.5" width="47" height="47" rx="3.5" fill="#F6F8F9" stroke="#D7DDE2"/>
<path d="M13.5747 18.7617C14.5454 16.8288 16.0345 15.204 17.8755 14.0688C19.7166 12.9335 21.8371 12.3327 24 12.3334C27.1442 12.3334 29.7855 13.4895 31.805 15.3725L28.4602 18.7185C27.2504 17.5624 25.7127 16.9732 24 16.9732C20.9609 16.9732 18.3884 19.0265 17.4725 21.7834C17.2392 22.4834 17.1062 23.23 17.1062 24C17.1062 24.77 17.2392 25.5167 17.4725 26.2167C18.3895 28.9747 20.9609 31.0269 24 31.0269C25.5692 31.0269 26.905 30.6127 27.9504 29.9127C28.5564 29.5137 29.0752 28.996 29.4754 28.3908C29.8757 27.7856 30.1491 27.1055 30.279 26.3917H24V21.879H34.9877C35.1254 22.642 35.2 23.4377 35.2 24.2649C35.2 27.8185 33.9284 30.8099 31.721 32.8399C29.7914 34.6225 27.15 35.6667 24 35.6667C22.4678 35.6673 20.9504 35.366 19.5347 34.7799C18.1189 34.1938 16.8326 33.3345 15.7491 32.251C14.6656 31.1675 13.8063 29.8811 13.2202 28.4654C12.6341 27.0497 12.3328 25.5323 12.3334 24C12.3334 22.117 12.7837 20.3367 13.5747 18.7617Z" fill="#007074"/>
</svg>
