<svg width="40" height="40" viewBox="0 0 40 40" fill="none" xmlns="http://www.w3.org/2000/svg">
<path d="M31.7847 21.9033L22.3564 31.3333C21.7313 31.9582 20.8836 32.3092 19.9997 32.3092C19.1158 32.3092 18.2681 31.9582 17.643 31.3333L8.21469 21.905C7.4353 21.1324 6.81619 20.2135 6.3929 19.201C5.96961 18.1885 5.75047 17.1023 5.74807 16.0049C5.74566 14.9075 5.96004 13.8204 6.3789 12.8061C6.79775 11.7917 7.41283 10.8701 8.18882 10.0941C8.96482 9.3181 9.88644 8.70302 10.9008 8.28417C11.9151 7.86532 13.0022 7.65094 14.0996 7.65334C15.197 7.65574 16.2832 7.87488 17.2957 8.29817C18.3082 8.72147 19.2271 9.34058 19.9997 10.12C21.569 8.58975 23.6779 7.7394 25.8697 7.75314C28.0615 7.76687 30.1597 8.64357 31.7097 10.1933C33.2596 11.7431 34.1366 13.8411 34.1507 16.0329C34.1647 18.2247 33.3147 20.3338 31.7847 21.9033Z" stroke="#007074" stroke-width="1.66667" stroke-linecap="round" stroke-linejoin="round"/>
</svg>
