<svg width="21" height="18" viewBox="0 0 21 18" fill="none" xmlns="http://www.w3.org/2000/svg">
<g id="&#240;&#159;&#166;&#134; icon &#34;warning&#34;">
<path id="Vector" d="M2.18726 18H18.6461C20.3291 18 21.3783 16.2325 20.5368 14.8249L12.3074 1.05571C11.4658 -0.351904 9.3675 -0.351904 8.52598 1.05571L0.296577 14.8249C-0.544943 16.2325 0.504224 18 2.18726 18ZM10.4167 10.5915C9.81558 10.5915 9.32378 10.1152 9.32378 9.53315V7.41643C9.32378 6.83434 9.81558 6.35808 10.4167 6.35808C11.0178 6.35808 11.5095 6.83434 11.5095 7.41643V9.53315C11.5095 10.1152 11.0178 10.5915 10.4167 10.5915ZM11.5095 14.8249H9.32378V12.7082H11.5095V14.8249Z" fill="#BB0C0C"/>
</g>
</svg>
