<svg width="20" height="20" viewBox="0 0 20 20" fill="none" xmlns="http://www.w3.org/2000/svg">
<path d="M14.7138 13.8806L11.178 17.4164C11.0234 17.5712 10.8398 17.694 10.6376 17.7778C10.4355 17.8616 10.2189 17.9047 10.0001 17.9047C9.7813 17.9047 9.56466 17.8616 9.36254 17.7778C9.16043 17.694 8.97681 17.5712 8.82218 17.4164L5.28551 13.8806C4.3532 12.9482 3.71829 11.7603 3.46108 10.4671C3.20388 9.17395 3.33592 7.83352 3.84051 6.61536C4.34511 5.39721 5.19959 4.35604 6.29591 3.62351C7.39223 2.89098 8.68115 2.5 9.99968 2.5C11.3182 2.5 12.6071 2.89098 13.7034 3.62351C14.7998 4.35604 15.6542 5.39721 16.1588 6.61536C16.6634 7.83352 16.7955 9.17395 16.5383 10.4671C16.2811 11.7603 15.6462 12.9482 14.7138 13.8806Z" stroke="#444444" stroke-width="2" stroke-linecap="round" stroke-linejoin="round"/>
<path d="M12.5 9.16699C12.5 9.83003 12.2366 10.4659 11.7678 10.9348C11.2989 11.4036 10.663 11.667 10 11.667C9.33696 11.667 8.70107 11.4036 8.23223 10.9348C7.76339 10.4659 7.5 9.83003 7.5 9.16699C7.5 8.50395 7.76339 7.86807 8.23223 7.39922C8.70107 6.93038 9.33696 6.66699 10 6.66699C10.663 6.66699 11.2989 6.93038 11.7678 7.39922C12.2366 7.86807 12.5 8.50395 12.5 9.16699Z" stroke="#444444" stroke-width="2" stroke-linecap="round" stroke-linejoin="round"/>
</svg>
