<svg width="24" height="24" viewBox="0 0 24 24" fill="none" xmlns="http://www.w3.org/2000/svg">
<path d="M8.47802 13.1383C8.68002 12.7343 8.79402 12.2783 8.79402 11.7963C8.79402 11.3143 8.68002 10.8583 8.47802 10.4543M8.47802 13.1383C8.17573 13.7426 7.67823 14.2273 7.06612 14.5136C6.45401 14.8 5.76315 14.8713 5.10547 14.716C4.44778 14.5607 3.86179 14.1878 3.44244 13.6579C3.02308 13.128 2.79492 12.472 2.79492 11.7963C2.79492 11.1205 3.02308 10.4645 3.44244 9.93459C3.86179 9.40467 4.44778 9.03186 5.10547 8.87656C5.76315 8.72125 6.45401 8.79255 7.06612 9.07889C7.67823 9.36524 8.17573 9.84987 8.47802 10.4543M8.47802 13.1383L15.11 16.4543M8.47802 10.4543L15.11 7.13826M15.11 16.4543C14.7541 17.1661 14.6955 17.9902 14.9472 18.7452C15.1989 19.5002 15.7402 20.1243 16.452 20.4803C17.1639 20.8362 17.9879 20.8947 18.743 20.6431C19.498 20.3914 20.1221 19.8501 20.478 19.1383C20.8339 18.4264 20.8925 17.6023 20.6408 16.8473C20.3892 16.0923 19.8479 15.4682 19.136 15.1123C18.7836 14.936 18.3998 14.8309 18.0067 14.803C17.6137 14.7751 17.2189 14.8248 16.8451 14.9494C16.0901 15.2011 15.4659 15.7424 15.11 16.4543ZM15.11 7.13826C15.2863 7.49066 15.5302 7.8049 15.8279 8.06303C16.1255 8.32117 16.4711 8.51815 16.8449 8.64272C17.2187 8.76729 17.6134 8.81701 18.0064 8.78905C18.3995 8.76109 18.7831 8.65599 19.1355 8.47976C19.4879 8.30352 19.8022 8.0596 20.0603 7.76193C20.3184 7.46425 20.5154 7.11864 20.64 6.74484C20.7646 6.37104 20.8143 5.97636 20.7863 5.58334C20.7584 5.19032 20.6533 4.80666 20.477 4.45426C20.1211 3.74255 19.497 3.20138 18.7421 2.9498C17.9872 2.69822 17.1632 2.75684 16.4515 3.11276C15.7398 3.46868 15.1986 4.09275 14.9471 4.84767C14.6955 5.6026 14.7541 6.42655 15.11 7.13826Z" stroke="black" stroke-width="1.5" stroke-linecap="round" stroke-linejoin="round"/>
</svg>
