<svg width="48" height="48" viewBox="0 0 48 48" fill="none" xmlns="http://www.w3.org/2000/svg">
<rect x="0.5" y="0.5" width="47" height="47" rx="3.5" fill="#F6F8F9" stroke="#D7DDE2"/>
<path d="M36.2033 17C35.305 17.4083 34.3366 17.6766 33.3333 17.805C34.36 17.1866 35.1533 16.2066 35.5266 15.0283C34.5583 15.6116 33.485 16.02 32.3533 16.2533C31.4316 15.25 30.1366 14.6666 28.6666 14.6666C25.925 14.6666 23.685 16.9066 23.685 19.6716C23.685 20.0683 23.7316 20.4533 23.8133 20.815C19.66 20.605 15.9616 18.61 13.5 15.5883C13.0683 16.3233 12.8233 17.1866 12.8233 18.0966C12.8233 19.835 13.6983 21.375 15.0516 22.25C14.2233 22.25 13.4533 22.0166 12.7766 21.6666V21.7016C12.7766 24.1283 14.5033 26.1583 16.79 26.6133C16.0558 26.8142 15.2851 26.8422 14.5383 26.695C14.8552 27.6895 15.4758 28.5598 16.3128 29.1834C17.1499 29.807 18.1613 30.1526 19.205 30.1716C17.4359 31.5721 15.243 32.3292 12.9866 32.3183C12.59 32.3183 12.1933 32.295 11.7966 32.2483C14.0133 33.6716 16.65 34.5 19.4733 34.5C28.6666 34.5 33.7183 26.87 33.7183 20.255C33.7183 20.0333 33.7183 19.8233 33.7066 19.6016C34.6866 18.9016 35.5266 18.015 36.2033 17Z" fill="#007074"/>
</svg>
