<svg width="21" height="18" viewBox="0 0 21 18" fill="none" xmlns="http://www.w3.org/2000/svg">
<path d="M2.25357 18H18.6712C20.3501 18 21.3966 16.2325 20.5572 14.8249L12.3484 1.05571C11.5089 -0.351904 9.41586 -0.351904 8.57644 1.05571L0.367613 14.8249C-0.471803 16.2325 0.574741 18 2.25357 18ZM10.4624 10.5915C9.86282 10.5915 9.37225 10.1152 9.37225 9.53315V7.41643C9.37225 6.83434 9.86282 6.35808 10.4624 6.35808C11.062 6.35808 11.5526 6.83434 11.5526 7.41643V9.53315C11.5526 10.1152 11.062 10.5915 10.4624 10.5915ZM11.5526 14.8249H9.37225V12.7082H11.5526V14.8249Z" fill="#BB0C0C"/>
</svg>
