<svg width="180" height="25" viewBox="0 0 180 25" fill="none" xmlns="http://www.w3.org/2000/svg">
<path d="M30.1862 24.6592V24.7234H30.2436C30.2544 24.7236 30.265 24.7208 30.2744 24.7152C30.2781 24.7125 30.2812 24.7088 30.2832 24.7045C30.2852 24.7002 30.2861 24.6954 30.2859 24.6907C30.2861 24.686 30.2852 24.6813 30.2832 24.6771C30.2811 24.6729 30.2781 24.6693 30.2744 24.6667C30.2651 24.6609 30.2544 24.658 30.2436 24.6585H30.1862V24.6592ZM30.2442 24.6137C30.2688 24.6121 30.2932 24.6195 30.3132 24.6346C30.3212 24.6414 30.3276 24.6501 30.3318 24.66C30.336 24.6699 30.3379 24.6807 30.3374 24.6915C30.3377 24.7007 30.3362 24.71 30.3329 24.7186C30.3295 24.7272 30.3244 24.735 30.318 24.7414C30.3026 24.7554 30.2832 24.7638 30.2628 24.7654L30.3398 24.8569H30.2805L30.2097 24.766H30.1868V24.8569H30.1372V24.6139H30.245L30.2442 24.6137ZM30.2288 24.9408C30.2548 24.941 30.2806 24.9356 30.3044 24.9247C30.3274 24.9144 30.3483 24.8996 30.366 24.8812C30.3838 24.8628 30.3979 24.8409 30.4077 24.8169C30.428 24.766 30.428 24.7088 30.4077 24.6579C30.3978 24.6339 30.3836 24.6121 30.366 24.5936C30.3483 24.5752 30.3274 24.5604 30.3044 24.5501C30.2804 24.5398 30.2547 24.5347 30.2288 24.535C30.2024 24.5347 30.1763 24.5399 30.1518 24.5501C30.1283 24.5602 30.1069 24.575 30.0888 24.5936C30.0616 24.6228 30.0432 24.6596 30.0359 24.6996C30.0286 24.7396 30.0327 24.781 30.0477 24.8185C30.0571 24.8426 30.0711 24.8645 30.0888 24.8828C30.1069 24.9014 30.1283 24.9162 30.1518 24.9263C30.1761 24.9372 30.2024 24.9426 30.2288 24.9424M30.2288 24.4765C30.2965 24.4764 30.3615 24.5041 30.4097 24.5536C30.433 24.5774 30.4515 24.6057 30.4643 24.637C30.4774 24.6691 30.4842 24.7037 30.4842 24.7386C30.4842 24.7735 30.4774 24.8081 30.4643 24.8402C30.4513 24.8713 30.4328 24.8996 30.4097 24.9236C30.3861 24.9472 30.3586 24.9663 30.3286 24.9798C30.297 24.9938 30.2631 25.0009 30.2288 25.0007C30.1941 25.001 30.1598 24.9939 30.1278 24.9798C30.0974 24.9666 30.0697 24.9475 30.046 24.9236C30.023 24.8987 30.0048 24.8695 29.9923 24.8375C29.9791 24.8054 29.9723 24.7708 29.9723 24.7359C29.9723 24.7009 29.9791 24.6664 29.9923 24.6343C30.005 24.603 30.0235 24.5746 30.0468 24.5509C30.0701 24.5266 30.0979 24.5074 30.1286 24.4947C30.1605 24.4806 30.1949 24.4735 30.2296 24.4738M6.64994 23.5378C6.64994 23.0743 6.94098 22.6936 7.41665 22.6936C7.87123 22.6936 8.17798 23.0579 8.17798 23.5378C8.17798 24.0177 7.87123 24.382 7.41665 24.382C6.94098 24.382 6.64994 24.0013 6.64994 23.5378ZM8.69615 23.5378V22.2189H8.14656V22.5402C7.97225 22.3027 7.70785 22.1538 7.34828 22.1538C6.63993 22.1538 6.08403 22.7334 6.08403 23.5385C6.08403 24.3435 6.63962 24.9231 7.34828 24.9231C7.70769 24.9231 7.97225 24.774 8.14656 24.5367V24.8569H8.69554V23.5378H8.69615ZM27.2661 23.5378C27.2661 23.0743 27.5571 22.6936 28.0329 22.6936C28.488 22.6936 28.7942 23.0579 28.7942 23.5378C28.7942 24.0177 28.488 24.382 28.0329 24.382C27.5572 24.382 27.2661 24.0013 27.2661 23.5378ZM29.3129 23.5378V21.1602H28.7628V22.5402C28.5885 22.3027 28.3241 22.1538 27.9645 22.1538C27.2562 22.1538 26.7003 22.7334 26.7003 23.5385C26.7003 24.3435 27.2559 24.9231 27.9645 24.9231C28.3241 24.9231 28.5885 24.774 28.7628 24.5367V24.8569H29.3129V23.5378ZM15.5173 22.6664C15.8714 22.6664 16.0989 22.8981 16.1569 23.306H14.8456C14.9042 22.9252 15.1258 22.6664 15.5174 22.6664M15.5284 22.1523C14.7877 22.1523 14.2695 22.7146 14.2695 23.537C14.2695 24.3755 14.8085 24.9217 15.5652 24.9217C15.9458 24.9217 16.2945 24.8225 16.6012 24.5522L16.3319 24.1272C16.12 24.304 15.8502 24.4031 15.5966 24.4031C15.2424 24.4031 14.9199 24.232 14.8406 23.7573H16.7173C16.7227 23.6859 16.7282 23.614 16.7282 23.5368C16.7227 22.7148 16.2355 22.1522 15.528 22.1522M22.1635 23.5368C22.1635 23.0734 22.4545 22.6926 22.9302 22.6926C23.3847 22.6926 23.6915 23.057 23.6915 23.5368C23.6915 24.0167 23.3847 24.3811 22.9302 24.3811C22.4545 24.3811 22.1633 24.0003 22.1633 23.5368M24.2095 23.5368V22.2189H23.6602V22.5402C23.4853 22.3027 23.2215 22.1538 22.862 22.1538C22.1536 22.1538 21.5977 22.7334 21.5977 23.5385C21.5977 24.3435 22.1533 24.9231 22.862 24.9231C23.2215 24.9231 23.4853 24.774 23.6602 24.5367V24.8569H24.2097V23.5378L24.2095 23.5368ZM19.0598 23.5368C19.0598 24.3367 19.5935 24.9215 20.4081 24.9215C20.7888 24.9215 21.0424 24.8331 21.3167 24.6071L21.0527 24.1436C20.8464 24.2983 20.6297 24.3811 20.3906 24.3811C19.9519 24.3755 19.6293 24.0445 19.6293 23.5368C19.6293 23.0292 19.9519 22.6984 20.3906 22.6926C20.6291 22.6926 20.8458 22.7754 21.0527 22.9301L21.3167 22.4666C21.042 22.2405 20.7883 22.1522 20.4081 22.1522C19.5935 22.1522 19.0598 22.7368 19.0598 23.5368ZM26.1449 22.1522C25.8278 22.1522 25.6213 22.3069 25.4785 22.5386V22.2189H24.9339V24.8555H25.4841V23.3775C25.4841 22.9411 25.6638 22.6987 26.023 22.6987C26.1407 22.697 26.2575 22.7195 26.3668 22.7651L26.5361 22.2246C26.4145 22.1747 26.2559 22.1527 26.1445 22.1527M11.4133 22.4285C11.1489 22.2466 10.7846 22.1527 10.3826 22.1527C9.74236 22.1527 9.33013 22.4728 9.33013 22.9967C9.33013 23.4266 9.63703 23.6919 10.2022 23.7746L10.4618 23.8132C10.7632 23.8573 10.9054 23.9401 10.9054 24.089C10.9054 24.2929 10.7053 24.4092 10.3294 24.4092C9.9487 24.4092 9.67398 24.2823 9.48874 24.1333L9.23049 24.5804C9.53185 24.8121 9.91251 24.9226 10.3247 24.9226C11.0547 24.9226 11.4777 24.5641 11.4777 24.062C11.4777 23.5985 11.1447 23.3561 10.5947 23.2734L10.3357 23.2342C10.0978 23.202 9.90712 23.1521 9.90712 22.9754C9.90712 22.7826 10.0868 22.6666 10.3883 22.6666C10.7109 22.6666 11.0232 22.7935 11.1763 22.8926L11.4142 22.4291L11.4133 22.4285ZM18.5047 22.1531C18.1876 22.1531 17.9811 22.3079 17.839 22.5395V22.2189H17.2943V24.8555H17.8439V23.3775C17.8439 22.9411 18.0236 22.6987 18.3829 22.6987C18.5005 22.697 18.6173 22.7195 18.7266 22.7651L18.896 22.2246C18.7743 22.1747 18.6157 22.1527 18.5044 22.1527M13.8148 22.2189H12.9161V21.419H12.3605V22.2189H11.8479V22.7429H12.3605V23.9457C12.3605 24.5575 12.5881 24.9218 13.2382 24.9218C13.4768 24.9218 13.7515 24.8447 13.9258 24.718L13.767 24.227C13.603 24.3261 13.4233 24.3761 13.2804 24.3761C13.0057 24.3761 12.9161 24.1994 12.9161 23.9348V22.7434H13.8148V22.2189ZM5.59804 24.8561V23.2014C5.59804 22.5782 5.21737 22.1589 4.60373 22.1533C4.28112 22.1477 3.94835 22.2524 3.71536 22.6224C3.54104 22.33 3.26633 22.1533 2.88012 22.1533C2.61018 22.1533 2.34639 22.236 2.13989 22.5448V22.2189H1.58984V24.8555H2.14421V23.3935C2.14421 22.9358 2.38751 22.6926 2.76324 22.6926C3.1282 22.6926 3.31283 22.9408 3.31283 23.3878V24.8552H3.86843V23.3932C3.86843 22.9355 4.12205 22.6923 4.48685 22.6923C4.86212 22.6923 5.04121 22.9405 5.04121 23.3874V24.8548L5.59804 24.8561Z" fill="#231F20"/>
<path d="M30.5053 16.0848V15.6992H30.409L30.2977 15.9638L30.187 15.6992H30.0904V16.0848H30.1588V15.7943L30.2629 16.0449H30.3337L30.4378 15.7937V16.0848H30.5056H30.5053ZM29.8947 16.0848V15.7652H30.0179V15.7002H29.7031V15.7652H29.8263V16.0848H29.8941H29.8947Z" fill="#F79410"/>
<path d="M19.567 17.7384H11.2383V2.12305H19.5671L19.567 17.7384Z" fill="#FF5F00"/>
<path d="M11.7648 9.93105C11.7648 6.76347 13.1864 3.94177 15.4002 2.12335C13.7245 0.74487 11.6519 -0.00327871 9.51794 1.08014e-05C4.2612 1.08014e-05 0 4.44622 0 9.93105C0 15.4159 4.2612 19.8621 9.51794 19.8621C11.652 19.8654 13.7246 19.1173 15.4003 17.7388C13.1867 15.9207 11.7648 13.0988 11.7648 9.93105Z" fill="#EB001B"/>
<path d="M30.8034 9.93105C30.8034 15.4159 26.5423 19.8621 21.2855 19.8621C19.1513 19.8654 17.0784 19.1172 15.4023 17.7388C17.6167 15.9203 19.0383 13.0988 19.0383 9.93105C19.0383 6.76331 17.6167 3.94177 15.4023 2.12335C17.0784 0.744912 19.1512 -0.00322105 21.2854 1.04246e-05C26.5421 1.04246e-05 30.8033 4.44622 30.8033 9.93105" fill="#F79E1B"/>
<path d="M80.1568 24.5833H75.7584L78.5074 0.431557H82.9063L80.1568 24.5833ZM72.0582 0.431557L67.8649 17.0433L67.3687 13.4662L67.3692 13.4674L65.8892 2.60615C65.8892 2.60615 65.7102 0.431557 63.8027 0.431557H56.8704L56.7891 0.840504C56.7891 0.840504 58.909 1.47104 61.39 3.60105L65.2113 24.5839H69.7941L76.7919 0.431557H72.0582ZM106.654 24.5833H110.693L107.172 0.430912H103.636C102.003 0.430912 101.605 2.23079 101.605 2.23079L95.0454 24.5833H99.6305L100.547 20.9958H106.139L106.654 24.5833ZM101.814 16.04L104.125 7.00183L105.425 16.04H101.814ZM95.3894 6.2395L96.0171 1.05305C96.0171 1.05305 94.0802 0 92.061 0C89.8783 0 84.6949 1.3638 84.6949 7.99545C84.6949 14.235 90.7785 14.3125 90.7785 17.5899C90.7785 20.8672 85.3217 20.28 83.5209 18.2133L82.8669 23.6362C82.8669 23.6362 84.8309 25 87.8316 25C90.8332 25 95.3613 22.7782 95.3613 16.7313C95.3613 10.4517 89.223 9.86704 89.223 7.13686C89.2235 4.40603 93.5071 4.75683 95.3894 6.2395Z" fill="#2566AF"/>
<path d="M65.4473 14.4656L63.9673 3.60427C63.9673 3.60427 63.7883 1.42969 61.8808 1.42969H54.9485L54.8672 1.83863C54.8672 1.83863 58.1991 2.82579 61.395 6.5244C64.4508 10.0596 65.4473 14.4656 65.4473 14.4656Z" fill="#E6A540"/>
<path d="M177.896 0H142.64C141.478 0 140.535 0.950563 140.535 2.12314V22.8769C140.535 24.0494 141.478 25 142.64 25H177.896C179.058 25 180 24.0494 180 22.8769V2.12314C180 0.950563 179.058 0 177.896 0Z" fill="#00425F"/>
<path d="M148.761 17.5563C152.11 17.5563 154.826 14.8172 154.826 11.4383C154.826 8.05944 152.11 5.32031 148.761 5.32031C145.411 5.32031 142.695 8.05944 142.695 11.4383C142.695 14.8172 145.411 17.5563 148.761 17.5563Z" fill="#EE312A"/>
<path d="M148.759 14.0601C147.403 10.9582 146.408 8.06055 146.408 8.06055H144.328C144.328 8.06055 145.594 11.7798 147.945 16.4311H149.573C151.925 11.7798 153.19 8.06055 153.19 8.06055H151.111C151.111 8.06055 150.116 10.9582 148.759 14.0601Z" fill="white"/>
<path d="M177.795 13.6727H173.726C173.726 13.6727 173.816 15.0411 175.625 15.0411C176.529 15.0411 177.433 14.7672 177.433 14.7672L177.614 16.2266C177.614 16.2266 176.71 16.5914 175.444 16.5914C173.635 16.5914 172.008 15.6793 172.008 13.1254C172.008 11.1187 173.274 9.8418 175.082 9.8418C177.795 9.8418 177.976 12.5781 177.795 13.6727ZM174.992 11.1187C173.816 11.1187 173.726 12.3957 173.726 12.3957H176.258C176.258 12.3957 176.167 11.1187 174.992 11.1187Z" fill="white"/>
<path d="M163.808 11.5052L164.079 10.0458C164.079 10.0458 161.984 9.40453 160.281 10.5931V16.4305H162.09L162.09 11.6876C162.813 11.1403 163.808 11.5052 163.808 11.5052Z" fill="white"/>
<path d="M158.869 13.6727H154.8C154.8 13.6727 154.891 15.0411 156.699 15.0411C157.603 15.0411 158.507 14.7672 158.507 14.7672L158.688 16.2266C158.688 16.2266 157.784 16.5914 156.518 16.5914C154.71 16.5914 153.082 15.6793 153.082 13.1254C153.082 11.1187 154.348 9.8418 156.156 9.8418C158.869 9.8418 159.05 12.5781 158.869 13.6727ZM156.066 11.1187C154.891 11.1187 154.8 12.3957 154.8 12.3957H157.332C157.332 12.3957 157.242 11.1187 156.066 11.1187Z" fill="white"/>
<path d="M168.204 14.2419C167.642 12.8628 167.188 11.4412 166.847 9.99023L165.039 9.99048C165.039 9.99048 165.943 13.512 167.481 16.4299H168.927C170.464 13.512 171.368 9.99112 171.368 9.99112H169.56C169.219 11.4418 168.766 12.8631 168.204 14.2419Z" fill="white"/>
</svg>
