<svg width="82" height="82" viewBox="0 0 82 82" fill="none" xmlns="http://www.w3.org/2000/svg">
<circle cx="41" cy="41" r="40.5" fill="#F6F8F9" stroke="#007074"/>
<path d="M47.25 38.5V31C47.25 29.3424 46.5915 27.7527 45.4194 26.5806C44.2473 25.4085 42.6576 24.75 41 24.75C39.3424 24.75 37.7527 25.4085 36.5806 26.5806C35.4085 27.7527 34.75 29.3424 34.75 31V38.5M53.6766 35.1783L55.7816 55.1783C55.8983 56.2867 55.0316 57.25 53.9166 57.25H28.0833C27.8203 57.2503 27.5602 57.1952 27.3199 57.0884C27.0796 56.9816 26.8644 56.8255 26.6883 56.6301C26.5123 56.4347 26.3793 56.2045 26.2981 55.9544C26.2168 55.7043 26.1891 55.4399 26.2166 55.1783L28.3233 35.1783C28.3719 34.7176 28.5894 34.2912 28.9337 33.9813C29.2781 33.6714 29.725 33.4999 30.1883 33.5H51.8116C52.7716 33.5 53.5766 34.225 53.6766 35.1783ZM35.375 38.5C35.375 38.6658 35.3091 38.8247 35.1919 38.9419C35.0747 39.0592 34.9157 39.125 34.75 39.125C34.5842 39.125 34.4252 39.0592 34.308 38.9419C34.1908 38.8247 34.125 38.6658 34.125 38.5C34.125 38.3342 34.1908 38.1753 34.308 38.0581C34.4252 37.9408 34.5842 37.875 34.75 37.875C34.9157 37.875 35.0747 37.9408 35.1919 38.0581C35.3091 38.1753 35.375 38.3342 35.375 38.5ZM47.875 38.5C47.875 38.6658 47.8091 38.8247 47.6919 38.9419C47.5747 39.0592 47.4157 39.125 47.25 39.125C47.0842 39.125 46.9252 39.0592 46.808 38.9419C46.6908 38.8247 46.625 38.6658 46.625 38.5C46.625 38.3342 46.6908 38.1753 46.808 38.0581C46.9252 37.9408 47.0842 37.875 47.25 37.875C47.4157 37.875 47.5747 37.9408 47.6919 38.0581C47.8091 38.1753 47.875 38.3342 47.875 38.5Z" stroke="#007074" stroke-width="1.5" stroke-linecap="round" stroke-linejoin="round"/>
</svg>
