<svg width="20" height="20" viewBox="0 0 20 20" fill="none" xmlns="http://www.w3.org/2000/svg">
<path d="M9.99999 13.3337C10.884 13.3337 11.7319 12.9825 12.357 12.3573C12.9821 11.7322 13.3333 10.8844 13.3333 10.0003C13.3333 9.11627 12.9821 8.26842 12.357 7.6433C11.7319 7.01818 10.884 6.66699 9.99999 6.66699C9.11593 6.66699 8.26809 7.01818 7.64297 7.6433C7.01785 8.26842 6.66666 9.11627 6.66666 10.0003C6.66666 10.8844 7.01785 11.7322 7.64297 12.3573C8.26809 12.9825 9.11593 13.3337 9.99999 13.3337Z" stroke="#F6F8F9" stroke-width="1.5" stroke-linecap="round" stroke-linejoin="round"/>
<path d="M2.5 13.3333V6.66667C2.5 5.5616 2.93899 4.50179 3.72039 3.72039C4.50179 2.93899 5.5616 2.5 6.66667 2.5H13.3333C14.4384 2.5 15.4982 2.93899 16.2796 3.72039C17.061 4.50179 17.5 5.5616 17.5 6.66667V13.3333C17.5 14.4384 17.061 15.4982 16.2796 16.2796C15.4982 17.061 14.4384 17.5 13.3333 17.5H6.66667C5.5616 17.5 4.50179 17.061 3.72039 16.2796C2.93899 15.4982 2.5 14.4384 2.5 13.3333Z" stroke="#F6F8F9" stroke-width="1.5"/>
<path d="M14.5833 5.42335L14.59 5.41602" stroke="#F6F8F9" stroke-width="1.5" stroke-linecap="round" stroke-linejoin="round"/>
</svg>
