<svg width="181" height="25" viewBox="0 0 181 25" fill="none" xmlns="http://www.w3.org/2000/svg">
<path d="M31.3622 24.6592V24.7234H31.4219C31.4331 24.7236 31.4441 24.7208 31.4539 24.7152C31.4578 24.7125 31.4609 24.7088 31.463 24.7045C31.4651 24.7002 31.4661 24.6954 31.4659 24.6907C31.4661 24.686 31.4651 24.6813 31.463 24.6771C31.4609 24.6729 31.4577 24.6693 31.4539 24.6667C31.4442 24.6609 31.4331 24.658 31.4219 24.6585H31.3622V24.6592ZM31.4225 24.6137C31.4481 24.6121 31.4734 24.6195 31.4942 24.6346C31.5025 24.6414 31.5091 24.6501 31.5135 24.66C31.5178 24.6699 31.5198 24.6807 31.5193 24.6915C31.5197 24.7007 31.5181 24.71 31.5146 24.7186C31.5111 24.7272 31.5059 24.735 31.4991 24.7414C31.4831 24.7554 31.463 24.7638 31.4419 24.7654L31.5219 24.8569H31.4603L31.3867 24.766H31.3628V24.8569H31.3113V24.6139H31.4233L31.4225 24.6137ZM31.4065 24.9408C31.4335 24.941 31.4603 24.9356 31.4851 24.9247C31.5089 24.9144 31.5307 24.8996 31.5491 24.8812C31.5675 24.8628 31.5822 24.8409 31.5924 24.8169C31.6134 24.766 31.6134 24.7088 31.5924 24.6579C31.5821 24.6339 31.5674 24.6121 31.5491 24.5936C31.5306 24.5752 31.5089 24.5604 31.4851 24.5501C31.4601 24.5398 31.4334 24.5347 31.4065 24.535C31.3791 24.5347 31.3519 24.5399 31.3265 24.5501C31.3021 24.5602 31.2799 24.575 31.2611 24.5936C31.2328 24.6228 31.2137 24.6596 31.2061 24.6996C31.1985 24.7396 31.2027 24.781 31.2184 24.8185C31.2281 24.8426 31.2427 24.8645 31.2611 24.8828C31.2799 24.9014 31.3021 24.9162 31.3265 24.9263C31.3518 24.9372 31.379 24.9426 31.4065 24.9424M31.4065 24.4765C31.4768 24.4764 31.5443 24.5041 31.5945 24.5536C31.6187 24.5774 31.6379 24.6057 31.6511 24.637C31.6648 24.6691 31.6718 24.7037 31.6718 24.7386C31.6718 24.7735 31.6648 24.8081 31.6511 24.8402C31.6376 24.8713 31.6184 24.8996 31.5945 24.9236C31.5699 24.9472 31.5414 24.9663 31.5102 24.9798C31.4774 24.9938 31.4421 25.0009 31.4065 25.0007C31.3705 25.001 31.3348 24.9939 31.3016 24.9798C31.27 24.9666 31.2412 24.9475 31.2166 24.9236C31.1927 24.8987 31.1738 24.8695 31.1608 24.8375C31.1471 24.8054 31.1401 24.7708 31.1401 24.7359C31.1401 24.7009 31.1471 24.6664 31.1608 24.6343C31.174 24.603 31.1932 24.5746 31.2174 24.5509C31.2416 24.5266 31.2705 24.5074 31.3024 24.4947C31.3356 24.4806 31.3713 24.4735 31.4073 24.4738M6.91069 23.5378C6.91069 23.0743 7.21304 22.6936 7.70722 22.6936C8.17947 22.6936 8.49815 23.0579 8.49815 23.5378C8.49815 24.0177 8.17947 24.382 7.70722 24.382C7.21304 24.382 6.91069 24.0013 6.91069 23.5378ZM9.03647 23.5378V22.2189H8.46551V22.5402C8.28442 22.3027 8.00973 22.1538 7.63619 22.1538C6.90029 22.1538 6.32277 22.7334 6.32277 23.5385C6.32277 24.3435 6.89997 24.9231 7.63619 24.9231C8.00957 24.9231 8.28442 24.774 8.46551 24.5367V24.8569H9.03583V23.5378H9.03647ZM28.3285 23.5378C28.3285 23.0743 28.6309 22.6936 29.1252 22.6936C29.598 22.6936 29.9162 23.0579 29.9162 23.5378C29.9162 24.0177 29.598 24.382 29.1252 24.382C28.6311 24.382 28.3285 24.0013 28.3285 23.5378ZM30.455 23.5378V21.1602H29.8835V22.5402C29.7024 22.3027 29.4277 22.1538 29.0542 22.1538C28.3183 22.1538 27.7408 22.7334 27.7408 23.5385C27.7408 24.3435 28.318 24.9231 29.0542 24.9231C29.4277 24.9231 29.7024 24.774 29.8835 24.5367V24.8569H30.455V23.5378ZM16.1229 22.6664C16.4908 22.6664 16.7271 22.8981 16.7874 23.306H15.425C15.486 22.9252 15.7162 22.6664 16.123 22.6664M16.1344 22.1523C15.3649 22.1523 14.8266 22.7146 14.8266 23.537C14.8266 24.3755 15.3865 24.9217 16.1726 24.9217C16.5681 24.9217 16.9303 24.8225 17.2489 24.5522L16.9691 24.1272C16.749 24.304 16.4687 24.4031 16.2052 24.4031C15.8373 24.4031 15.5023 24.232 15.4199 23.7573H17.3696C17.3752 23.6859 17.3809 23.614 17.3809 23.5368C17.3752 22.7148 16.869 22.1522 16.1341 22.1522M23.0275 23.5368C23.0275 23.0734 23.3299 22.6926 23.824 22.6926C24.2963 22.6926 24.615 23.057 24.615 23.5368C24.615 24.0167 24.2963 24.3811 23.824 24.3811C23.3299 24.3811 23.0273 24.0003 23.0273 23.5368M25.1531 23.5368V22.2189H24.5825V22.5402C24.4008 22.3027 24.1267 22.1538 23.7532 22.1538C23.0173 22.1538 22.4397 22.7334 22.4397 23.5385C22.4397 24.3435 23.0169 24.9231 23.7532 24.9231C24.1267 24.9231 24.4008 24.774 24.5825 24.5367V24.8569H25.1533V23.5378L25.1531 23.5368ZM19.8032 23.5368C19.8032 24.3367 20.3576 24.9215 21.2039 24.9215C21.5994 24.9215 21.8629 24.8331 22.1478 24.6071L21.8736 24.1436C21.6592 24.2983 21.4341 24.3811 21.1857 24.3811C20.7299 24.3755 20.3947 24.0445 20.3947 23.5368C20.3947 23.0292 20.7299 22.6984 21.1857 22.6926C21.4335 22.6926 21.6586 22.7754 21.8736 22.9301L22.1478 22.4666C21.8624 22.2405 21.5989 22.1522 21.2039 22.1522C20.3576 22.1522 19.8032 22.7368 19.8032 23.5368ZM27.1637 22.1522C26.8343 22.1522 26.6198 22.3069 26.4715 22.5386V22.2189H25.9057V24.8555H26.4773V23.3775C26.4773 22.9411 26.664 22.6987 27.0372 22.6987C27.1594 22.697 27.2808 22.7195 27.3943 22.7651L27.5702 22.2246C27.4439 22.1747 27.2791 22.1527 27.1634 22.1527M11.8593 22.4285C11.5846 22.2466 11.2061 22.1527 10.7886 22.1527C10.1234 22.1527 9.6951 22.4728 9.6951 22.9967C9.6951 23.4266 10.0139 23.6919 10.6011 23.7746L10.8708 23.8132C11.1839 23.8573 11.3317 23.9401 11.3317 24.089C11.3317 24.2929 11.1237 24.4092 10.7332 24.4092C10.3377 24.4092 10.0523 24.2823 9.85988 24.1333L9.5916 24.5804C9.90467 24.8121 10.3001 24.9226 10.7284 24.9226C11.4867 24.9226 11.9262 24.5641 11.9262 24.062C11.9262 23.5985 11.5803 23.3561 11.0088 23.2734L10.7398 23.2342C10.4926 23.202 10.2945 23.1521 10.2945 22.9754C10.2945 22.7826 10.4812 22.6666 10.7945 22.6666C11.1296 22.6666 11.4541 22.7935 11.6131 22.8926L11.8602 22.4291L11.8593 22.4285ZM19.2264 22.1531C18.897 22.1531 18.6825 22.3079 18.5348 22.5395V22.2189H17.969V24.8555H18.54V23.3775C18.54 22.9411 18.7267 22.6987 19.0999 22.6987C19.2221 22.697 19.3435 22.7195 19.457 22.7651L19.6329 22.2246C19.5066 22.1747 19.3418 22.1527 19.2261 22.1527M14.3541 22.2189H13.4205V21.419H12.8433V22.2189H12.3107V22.7429H12.8433V23.9457C12.8433 24.5575 13.0798 24.9218 13.7552 24.9218C14.003 24.9218 14.2884 24.8447 14.4695 24.718L14.3045 24.227C14.1342 24.3261 13.9475 24.3761 13.799 24.3761C13.5136 24.3761 13.4205 24.1994 13.4205 23.9348V22.7434H14.3541V22.2189ZM5.81788 24.8561V23.2014C5.81788 22.5782 5.42241 22.1589 4.7849 22.1533C4.44974 22.1477 4.10403 22.2524 3.86198 22.6224C3.68089 22.33 3.39549 22.1533 2.99426 22.1533C2.71382 22.1533 2.43978 22.236 2.22525 22.5448V22.2189H1.65381V24.8555H2.22973V23.3935C2.22973 22.9358 2.48249 22.6926 2.87284 22.6926C3.25199 22.6926 3.4438 22.9408 3.4438 23.3878V24.8552H4.021V23.3932C4.021 22.9355 4.28449 22.6923 4.66347 22.6923C5.05334 22.6923 5.23939 22.9405 5.23939 23.3874V24.8548L5.81788 24.8561Z" fill="#231F20"/>
<path d="M31.6927 16.0848V15.6992H31.5927L31.477 15.9638L31.362 15.6992H31.2617V16.0848H31.3327V15.7943L31.4409 16.0449H31.5145L31.6226 15.7937V16.0848H31.693H31.6927ZM31.0584 16.0848V15.7652H31.1864V15.7002H30.8594V15.7652H30.9874V16.0848H31.0577H31.0584Z" fill="#F79410"/>
<path d="M20.3274 17.7384H11.6748V2.12305H20.3275L20.3274 17.7384Z" fill="#FF5F00"/>
<path d="M12.2223 9.93105C12.2223 6.76347 13.6992 3.94177 15.9991 2.12335C14.2582 0.74487 12.105 -0.00327871 9.88808 1.08014e-05C4.42691 1.08014e-05 0 4.44622 0 9.93105C0 15.4159 4.42691 19.8621 9.88808 19.8621C12.1051 19.8654 14.2583 19.1173 15.9992 17.7388C13.6996 15.9207 12.2223 13.0988 12.2223 9.93105Z" fill="#EB001B"/>
<path d="M32.0002 9.93105C32.0002 15.4159 27.5732 19.8621 22.1121 19.8621C19.8948 19.8654 17.7414 19.1172 16.0001 17.7388C18.3006 15.9203 19.7775 13.0988 19.7775 9.93105C19.7775 6.76331 18.3006 3.94177 16.0001 2.12335C17.7413 0.744912 19.8947 -0.00322105 22.1119 1.04246e-05C27.5731 1.04246e-05 32 4.44622 32 9.93105" fill="#F79E1B"/>
<path d="M83.276 24.5833H78.7066L81.5624 0.431557H86.1324L83.276 24.5833ZM74.8624 0.431557L70.5061 17.0433L69.9906 13.4662L69.9911 13.4674L68.4535 2.60615C68.4535 2.60615 68.2676 0.431557 66.2859 0.431557H59.084L58.9995 0.840504C58.9995 0.840504 61.2019 1.47104 63.7793 3.60105L67.7493 24.5839H72.5103L79.7803 0.431557H74.8624ZM110.804 24.5833H115L111.341 0.430912H107.668C105.972 0.430912 105.559 2.23079 105.559 2.23079L98.7436 24.5833H103.507L104.46 20.9958H110.269L110.804 24.5833ZM105.776 16.04L108.177 7.00183L109.527 16.04H105.776ZM99.1009 6.2395L99.753 1.05305C99.753 1.05305 97.7408 0 95.6432 0C93.3756 0 87.9906 1.3638 87.9906 7.99545C87.9906 14.235 94.3108 14.3125 94.3108 17.5899C94.3108 20.8672 88.6418 20.28 86.7709 18.2133L86.0915 23.6362C86.0915 23.6362 88.1319 25 91.2493 25C94.3676 25 99.0718 22.7782 99.0718 16.7313C99.0718 10.4517 92.6948 9.86704 92.6948 7.13686C92.6953 4.40603 97.1455 4.75683 99.1009 6.2395Z" fill="#2566AF"/>
<path d="M67.9916 14.4656L66.454 3.60427C66.454 3.60427 66.2681 1.42969 64.2864 1.42969H57.0845L57 1.83863C57 1.83863 60.4615 2.82579 63.7817 6.5244C66.9563 10.0596 67.9916 14.4656 67.9916 14.4656Z" fill="#E6A540"/>
<path d="M178.813 0H142.186C140.979 0 140 0.950563 140 2.12314V22.8769C140 24.0494 140.979 25 142.186 25H178.813C180.021 25 181 24.0494 181 22.8769V2.12314C181 0.950563 180.021 0 178.813 0Z" fill="#00425F"/>
<path d="M148.543 17.5563C152.023 17.5563 154.844 14.8172 154.844 11.4383C154.844 8.05944 152.023 5.32031 148.543 5.32031C145.063 5.32031 142.242 8.05944 142.242 11.4383C142.242 14.8172 145.063 17.5563 148.543 17.5563Z" fill="#EE312A"/>
<path d="M148.543 14.0601C147.134 10.9582 146.1 8.06055 146.1 8.06055H143.939C143.939 8.06055 145.255 11.7798 147.697 16.4311H149.388C151.831 11.7798 153.146 8.06055 153.146 8.06055H150.986C150.986 8.06055 149.952 10.9582 148.543 14.0601Z" fill="white"/>
<path d="M178.705 13.6727H174.478C174.478 13.6727 174.572 15.0411 176.45 15.0411C177.39 15.0411 178.329 14.7672 178.329 14.7672L178.517 16.2266C178.517 16.2266 177.578 16.5914 176.263 16.5914C174.384 16.5914 172.693 15.6793 172.693 13.1254C172.693 11.1187 174.008 9.8418 175.887 9.8418C178.705 9.8418 178.893 12.5781 178.705 13.6727ZM175.793 11.1187C174.572 11.1187 174.478 12.3957 174.478 12.3957H177.108C177.108 12.3957 177.014 11.1187 175.793 11.1187Z" fill="white"/>
<path d="M164.179 11.5052L164.461 10.0458C164.461 10.0458 162.285 9.40453 160.516 10.5931V16.4305H162.395L162.394 11.6876C163.146 11.1403 164.179 11.5052 164.179 11.5052Z" fill="white"/>
<path d="M159.045 13.6727H154.818C154.818 13.6727 154.912 15.0411 156.791 15.0411C157.73 15.0411 158.67 14.7672 158.67 14.7672L158.858 16.2266C158.858 16.2266 157.918 16.5914 156.603 16.5914C154.724 16.5914 153.033 15.6793 153.033 13.1254C153.033 11.1187 154.348 9.8418 156.227 9.8418C159.045 9.8418 159.233 12.5781 159.045 13.6727ZM156.133 11.1187C154.912 11.1187 154.818 12.3957 154.818 12.3957H157.448C157.448 12.3957 157.354 11.1187 156.133 11.1187Z" fill="white"/>
<path d="M168.744 14.2419C168.16 12.8628 167.689 11.4412 167.335 9.99023L165.457 9.99048C165.457 9.99048 166.396 13.512 167.993 16.4299H169.496C171.093 13.512 172.032 9.99112 172.032 9.99112H170.153C169.799 11.4418 169.328 12.8631 168.744 14.2419Z" fill="white"/>
</svg>
