<svg width="20" height="20" viewBox="0 0 20 20" fill="none" xmlns="http://www.w3.org/2000/svg">
<g clip-path="url(#clip0_1080_1567)">
<path d="M6.66667 12.0837C4.16667 8.33366 7.885 5.41699 10.4167 5.41699C12.9483 5.41699 15 6.79533 15 10.0003C15 12.532 13.3333 14.167 11.6667 14.167C10 14.167 9.16667 12.5003 9.58333 10.0003M10 8.33366L7.5 17.917" stroke="#F6F8F9" stroke-width="1.5" stroke-linecap="round" stroke-linejoin="round"/>
<path d="M9.99999 18.3337C14.6025 18.3337 18.3333 14.6028 18.3333 10.0003C18.3333 5.39783 14.6025 1.66699 9.99999 1.66699C5.39749 1.66699 1.66666 5.39783 1.66666 10.0003C1.66666 14.6028 5.39749 18.3337 9.99999 18.3337Z" stroke="#F6F8F9" stroke-width="1.5" stroke-linecap="round" stroke-linejoin="round"/>
</g>
<defs>
<clipPath id="clip0_1080_1567">
<rect width="20" height="20" fill="white"/>
</clipPath>
</defs>
</svg>
